<svg width="161" height="150" viewBox="0 0 161 150" fill="none" xmlns="http://www.w3.org/2000/svg">
<g clip-path="url(#clip0)">
<g filter="url(#filter0_d)">
<path fill-rule="evenodd" clip-rule="evenodd" d="M99.9288 89.1371H108.617V75.8639H99.9288V89.1371ZM99.9288 45.5879H108.617V32.3147H99.9288V45.5879ZM91.7232 89.1371H99.9288V75.8639H91.7232V89.1371ZM99.9288 67.3691H108.617V54.0959H99.9288V67.3691ZM91.7232 45.5879H99.9288V32.3147H91.7232V45.5879ZM83.5056 89.1371H91.7232V75.8639H83.5056V89.1371ZM91.7232 67.3691H99.9288V54.0959H91.7232V67.3691ZM83.5056 45.5879H91.7232V32.3147H83.5056V45.5879ZM75.3 89.1371H83.5056V75.8639H75.3V89.1371ZM83.5056 67.3691H91.7232V54.0959H83.5056V67.3691ZM75.3 45.5879H83.5056V32.3147H75.3V45.5879ZM67.0824 89.1371H75.3V75.8639H67.0824V89.1371ZM75.3 67.3691H83.5056V54.0959H75.3V67.3691ZM67.0824 45.5879H75.3V32.3147H67.0824V45.5879Z" fill="#6AC86A"/>
<path fill-rule="evenodd" clip-rule="evenodd" d="M59.6028 89.1371H67.0836V75.8639H59.6028V89.1371ZM67.0824 67.3691H75.3V54.0959H67.0824V67.3691ZM59.6028 45.5879H67.0836V32.3147H59.6028V45.5879Z" fill="#6AC86A"/>
<path fill-rule="evenodd" clip-rule="evenodd" d="M59.6028 67.3691H67.0836V54.0959H59.6028V67.3691Z" fill="#6AC86A"/>
<path fill-rule="evenodd" clip-rule="evenodd" d="M26.3591 105.619L32.1143 108.443C32.1143 108.443 54.2087 100.793 56.9843 100.394C59.7467 99.9959 65.3819 98.3795 73.8287 100.394C82.2755 102.41 90.2147 104.822 102.535 101.203C114.856 97.5827 118.668 97.5827 120.175 101.203C121.685 104.822 123.893 108.841 119.174 112.46L140.593 105.221C140.593 105.221 147.433 101.999 149.848 105.221C151.622 107.61 153.363 110.024 155.072 112.46L158.693 121.112L102.535 141.818L47.0771 133.782L26.3591 136.594V105.619Z" fill="white"/>
<path fill-rule="evenodd" clip-rule="evenodd" d="M17.8524 148.661H9.70555C7.4502 148.659 5.28788 147.762 3.69322 146.167C2.09855 144.572 1.20186 142.409 1.19995 140.154V102.072C1.19995 97.3656 5.01475 93.5532 9.70795 93.5532H17.8524C22.5468 93.5532 26.3604 97.3656 26.3604 102.072V140.154C26.3588 142.41 25.4618 144.573 23.8666 146.168C22.2713 147.763 20.1082 148.66 17.8524 148.661Z" fill="#6AC86A"/>
<path fill-rule="evenodd" clip-rule="evenodd" d="M26.3592 136.595V140.154C26.3576 142.41 25.4606 144.573 23.8654 146.168C22.2701 147.763 20.107 148.66 17.8512 148.661H9.70795C7.45188 148.66 5.28858 147.763 3.69329 146.167C2.09801 144.572 1.20122 142.409 1.19995 140.153V102.072C1.19995 97.3668 5.01475 93.552 9.70795 93.552H17.8536C22.5456 93.552 26.3604 97.3668 26.3604 102.072V136.595H26.3592Z" stroke="#054747" stroke-width="2" stroke-linecap="round" stroke-linejoin="round"/>
<path d="M62.1599 125.336L119.174 112.46L140.592 105.222C140.592 105.222 147.434 102 149.848 105.222C151.622 107.611 153.364 110.025 155.072 112.462M26.3591 136.595L47.0771 133.783L102.535 141.82L158.693 121.114L155.072 112.462L102.535 132.974L97.2263 133.783L26.3591 136.595Z" stroke="#054747" stroke-width="2" stroke-linecap="round" stroke-linejoin="round"/>
<path d="M99.9287 32.3159V45.5879M26.3591 105.619L32.1143 108.443C32.1143 108.443 54.2087 100.793 56.9843 100.394C59.7467 99.9959 65.3819 98.3795 73.8287 100.394C82.2755 102.41 90.2147 104.822 102.535 101.203C114.856 97.5827 118.668 97.5827 120.175 101.203C121.685 104.822 123.893 108.841 119.174 112.46L26.3591 105.619ZM99.9287 75.8627H108.617V89.1371H59.6027V75.8627H91.7231H99.9287ZM67.0835 75.8639V89.1359V75.8639ZM75.2999 75.8639V89.1359V75.8639ZM83.5055 75.8639V89.1359V75.8639ZM91.7231 75.8639V89.1359V75.8639ZM99.9287 75.8639V89.1359V75.8639ZM99.9287 54.0959H108.617V67.3691H59.6027V54.0959H91.7231H99.9287ZM67.0835 54.0959V67.3679V54.0959ZM75.2999 54.0959V67.3679V54.0959ZM83.5055 54.0959V67.3679V54.0959ZM91.7231 54.0959V67.3679V54.0959ZM99.9287 54.0959V67.3679V54.0959ZM99.9287 32.3159H108.617V45.5879H59.6027V32.3159H91.7231H99.9287ZM67.0835 32.3159V45.5879V32.3159ZM75.2999 32.3159V45.5879V32.3159ZM83.5055 32.3159V45.5879V32.3159ZM91.7231 32.3159V45.5879V32.3159Z" stroke="#054747" stroke-width="2" stroke-linecap="round" stroke-linejoin="round"/>
<path d="M98.5439 20.3256L107.434 6.42598M63.7079 23.1708L57.3479 7.75918L63.7079 23.1708ZM81.7991 16.9752L82.3031 0.0551758L81.7991 16.9752Z" stroke="#FFFFFE" stroke-width="3"/>
</g>
</g>
<defs>
<filter id="filter0_d" x="-3.80005" y="0.010498" width="167.493" height="157.65" filterUnits="userSpaceOnUse" color-interpolation-filters="sRGB">
<feFlood flood-opacity="0" result="BackgroundImageFix"/>
<feColorMatrix in="SourceAlpha" type="matrix" values="0 0 0 0 0 0 0 0 0 0 0 0 0 0 0 0 0 0 127 0"/>
<feOffset dy="4"/>
<feGaussianBlur stdDeviation="2"/>
<feColorMatrix type="matrix" values="0 0 0 0 0 0 0 0 0 0 0 0 0 0 0 0 0 0 0.25 0"/>
<feBlend mode="normal" in2="BackgroundImageFix" result="effect1_dropShadow"/>
<feBlend mode="normal" in="SourceGraphic" in2="effect1_dropShadow" result="shape"/>
</filter>
<clipPath id="clip0">
<rect width="160.8" height="150" fill="white"/>
</clipPath>
</defs>
</svg>
