<svg width="169" height="148" viewBox="0 0 169 148" fill="none" xmlns="http://www.w3.org/2000/svg">
<path d="M52.3405 114.364H97.9715M30.3394 0H137.899V145.996H30.3394V0ZM52.3405 18.656H120.786H52.3405ZM52.3405 33.2548H96.3417H52.3405ZM52.3405 67.3202H120.786H52.3405ZM52.3405 81.9214H120.786H52.3405ZM52.3405 98.1417H120.786H52.3405Z" stroke="white" stroke-width="3"/>
<path fill-rule="evenodd" clip-rule="evenodd" d="M138.876 95.5463C143.276 93.5999 147.188 90.5178 150.121 86.7868C154.195 81.7583 156.639 75.2702 156.639 68.1321C156.639 61.644 154.685 57.1011 151.262 54.019C146.048 49.1523 137.41 47.8547 127.306 47.8547C119.973 47.8547 113.454 48.3416 108.401 50.4499C104.654 51.9106 101.882 54.1809 100.091 57.588C98.6227 60.1833 97.9715 63.4273 97.9715 67.4833V69.4297C98.7858 85.1654 110.357 98.3047 126.491 98.3047C130.891 98.1428 135.129 97.169 138.876 95.5475V95.5463ZM50.3846 41.0428C57.881 41.3678 65.5405 42.6654 71.5703 46.8833C71.8965 47.0452 72.2227 47.369 72.5489 47.5321C72.8739 48.0178 73.525 48.3416 74.1786 48.6666L74.0155 48.5047C74.6667 48.9916 75.4822 49.3154 76.2965 49.4785C79.0667 50.4511 82.1631 50.7761 85.0965 50.7761C87.7036 50.7761 90.3108 50.6142 92.756 49.9654C95.2012 49.3154 97.156 47.694 99.1131 46.0725C103.839 42.9892 110.357 41.5297 117.691 41.0428C120.787 40.8809 124.046 40.719 127.306 40.719C129.425 40.719 131.543 40.719 133.499 40.8809L162.344 39.5833L167.233 42.8273V52.5606L163.158 56.6154C164.254 59.8551 164.805 63.2539 164.789 66.6737C164.79 72.0342 163.658 77.3343 161.467 82.2266C159.276 87.1189 156.076 91.4929 152.076 95.0618C149.143 97.819 145.558 100.09 141.81 101.713C137.083 103.821 131.706 104.957 126.164 104.957C104.816 104.957 89.6596 86.788 89.6596 65.538C89.6596 64.5642 89.6596 63.5916 89.8227 62.7797C88.6822 61.3202 86.8893 60.5094 84.7715 60.5094C83.8161 60.5055 82.871 60.7061 81.9996 61.0977C81.1281 61.4893 80.3506 62.0628 79.7191 62.7797C79.8822 63.7535 79.8822 64.5654 79.8822 65.538C79.8822 86.788 64.7262 104.957 43.3774 104.957C37.8358 104.957 32.4584 103.821 27.7322 101.713C24.1465 100.09 20.725 97.9821 17.7917 95.3856C9.806 88.4106 4.75362 78.0285 4.75362 66.6737C4.75362 63.1047 5.24171 59.8606 6.05719 57.2642L0.67981 52.7225V42.9892L6.38219 39.7452L35.881 41.0428C38 40.8809 40.1179 40.8809 42.2358 40.8809C45.1703 40.8809 47.7774 40.8809 50.3846 41.0428ZM19.7465 86.7868C22.6798 90.5178 26.5917 93.5999 30.9917 95.5475C34.7393 97.3321 38.9774 98.1428 43.3774 98.1428C60 98.1428 71.8965 83.8678 71.8965 67.3213C71.8965 63.1035 71.0822 59.8594 69.6155 57.263C67.6596 53.8571 64.5631 51.5856 60.6512 50.1261C55.7631 48.3404 49.4072 47.8547 42.562 47.8547C32.1334 47.8547 23.3322 49.3142 18.2798 54.3428C15.1846 57.4261 13.2274 61.8059 13.2274 68.1321C13.2274 75.1082 15.6727 81.5963 19.7465 86.7868Z" fill="#6AC86A"/>
<path fill-rule="evenodd" clip-rule="evenodd" d="M145.885 79.65C141.81 73.8095 134.639 65.5369 122.742 58.075C119.973 56.2893 116.876 54.6678 113.617 53.0464L113.78 52.8833L150.936 54.5059L151.262 54.1809C154.685 57.2643 156.639 61.8059 156.639 68.294C156.639 75.2702 154.195 81.7583 150.121 86.9488C149.958 86.4631 148.818 83.7047 145.883 79.65H145.885Z" fill="#FFFFFE"/>
<path fill-rule="evenodd" clip-rule="evenodd" d="M151.262 54.0191L150.936 54.3441L113.78 52.7214L113.617 52.8833C111.964 52.0594 110.278 51.3021 108.564 50.6131L108.401 50.2881C113.454 48.3417 119.973 47.6929 127.306 47.6929C137.41 47.8548 146.047 49.1524 151.262 54.0191ZM150.122 86.7869C147.188 90.5179 143.276 93.6 138.876 95.5476C138.713 95.3845 138.713 95.2226 138.55 94.8988C137.63 93.0835 136.652 91.298 135.617 89.5453C140.18 87.5988 143.766 84.0298 145.885 79.65C148.818 83.7048 149.959 86.4631 150.122 86.7869Z" fill="#138F11"/>
<path fill-rule="evenodd" clip-rule="evenodd" d="M145.885 79.6499C143.603 84.0297 140.017 87.5987 135.617 89.5452C131.054 82.0833 124.536 73.3237 115.083 66.1856L122.58 58.5618L122.906 58.0737C134.639 65.5368 141.973 73.9725 145.885 79.6499Z" fill="#138F11"/>
<path fill-rule="evenodd" clip-rule="evenodd" d="M115.083 66.1858C124.536 73.3239 131.054 82.0834 135.617 89.5453C136.719 91.259 137.699 93.0479 138.55 94.8989C138.713 95.0608 138.713 95.2227 138.876 95.5477C135.129 97.3323 130.89 98.143 126.49 98.143C110.52 98.143 98.9488 85.0037 97.9714 69.268L102.861 68.943L109.542 62.293C111.498 63.5906 113.29 64.8882 115.083 66.1858Z" fill="#FFFFFE"/>
<path fill-rule="evenodd" clip-rule="evenodd" d="M109.542 62.2928C106.608 60.5071 103.675 58.8857 100.416 57.5881L100.252 57.4262C102.045 54.019 104.979 51.7476 108.564 50.2881L108.727 50.6131C110.52 51.4226 112.15 52.0726 113.78 52.8833C117.038 54.5059 120.135 56.1285 122.906 57.9119L122.58 58.4L115.083 66.0238C113.291 64.8881 111.498 63.5905 109.542 62.2928ZM117.691 41.2035C110.357 41.8524 103.838 43.15 99.112 46.2321C97.156 47.6928 95.2013 49.3154 92.756 50.125C90.312 50.775 87.5417 50.9369 85.0965 50.9369C82.1632 50.9369 79.0667 50.6131 76.2965 49.6393C75.4822 49.3143 74.8298 48.9905 74.0156 48.6655C73.5263 48.1797 72.8739 47.6928 72.2227 47.2059C72.3858 47.3678 72.3858 47.5309 72.5489 47.6928C72.2227 47.5309 71.8965 47.2059 71.5703 47.044L71.8965 46.5571C75.9703 45.2595 80.2084 44.1238 84.4441 43.3131C93.8965 41.2035 104.164 40.3928 117.691 41.2035Z" fill="#138F11"/>
<path fill-rule="evenodd" clip-rule="evenodd" d="M109.542 62.2929L102.861 68.9429L97.9714 69.2679V67.3203C97.9714 63.2643 98.7857 60.0203 100.09 57.425L100.252 57.587C103.512 59.0465 106.61 60.5072 109.542 62.2917V62.2929Z" fill="#FFFFFE"/>
<path fill-rule="evenodd" clip-rule="evenodd" d="M84.4452 43.1499C80.2071 44.1237 75.9702 45.0975 71.8964 46.3951L71.5702 46.882C65.5405 42.6642 57.8809 41.3666 50.5476 41.0416C63.7476 40.2308 74.1786 41.3666 84.4452 43.1499Z" fill="#138F11"/>
<path fill-rule="evenodd" clip-rule="evenodd" d="M69.6155 57.2632C71.0822 59.8584 71.8965 63.1037 71.8965 67.3215C71.8965 83.8679 60 98.1429 43.3774 98.1429C38.9774 98.1429 34.7393 97.1691 30.9917 95.5477C37.0215 83.8679 48.4286 66.3477 69.4524 57.4263L69.6155 57.2632Z" fill="#FFFFFE"/>
<path fill-rule="evenodd" clip-rule="evenodd" d="M69.6155 57.2631L69.4524 57.4262C48.4286 66.3476 37.0215 84.0297 30.9917 95.5464C26.5917 93.5988 22.6798 90.5166 19.7465 86.7857C20.0727 86.1369 29.3619 66.0226 56.0881 52.7202C57.5548 52.0714 59.0215 51.2607 60.4881 50.6119L60.6512 50.1238C64.5631 51.5845 67.6596 53.8559 69.6155 57.2619V57.2631Z" fill="#138F11"/>
<path fill-rule="evenodd" clip-rule="evenodd" d="M60.6512 50.1262L60.4881 50.6131C59.0215 51.2619 57.5548 51.9107 56.0881 52.7214L18.2798 54.3441C23.4941 49.3143 32.2953 47.856 42.5619 47.856C49.5703 47.856 55.7631 48.3417 60.6512 50.1262Z" fill="#138F11"/>
<path fill-rule="evenodd" clip-rule="evenodd" d="M18.2798 54.3441L56.0893 52.7214C29.3607 66.0238 20.0714 86.1381 19.7452 86.7869C15.6714 81.7583 13.2262 75.2702 13.2262 68.1321C13.2262 61.806 15.0191 57.4262 18.2786 54.3441H18.2798Z" fill="#FFFFFE"/>
<path d="M63.7476 68.9429C63.7476 80.9476 55.1107 91.1679 43.2142 91.1679" stroke="#6AC86A" stroke-width="2"/>
<path d="M79.881 62.9418C81.0227 61.481 82.8155 60.6703 84.9334 60.6703C86.8893 60.6703 88.6822 61.481 89.9858 62.9418M72.3858 47.531C72.2227 47.3679 72.2227 47.206 72.0596 47.0429C72.7108 47.531 73.2 48.0168 73.8524 48.5037L74.0155 48.6656C73.3631 48.5037 72.8739 48.0168 72.3846 47.531H72.3858ZM89.9858 62.9418C89.9858 63.9144 89.8227 64.7263 89.8227 65.6989C89.8227 86.9489 104.979 105.118 126.327 105.118C131.869 105.118 137.246 103.982 141.973 101.874C145.721 100.251 149.143 97.981 152.239 95.2227C156.239 91.6538 159.439 87.2798 161.63 82.3875C163.821 77.4952 164.953 72.1951 164.952 66.8346C164.952 62.9418 164.464 59.6965 163.323 56.7775L167.396 52.7215V42.9882L162.508 39.7441L133.663 41.0418C131.707 40.8799 129.588 40.8799 127.47 40.8799C124.048 40.8799 120.951 41.0418 117.855 41.2037C110.521 41.8525 104.002 43.1501 99.2762 46.2322L89.9858 62.9418Z" stroke="#054747" stroke-width="2"/>
<path fill-rule="evenodd" clip-rule="evenodd" d="M50.3845 41.0418C47.7774 40.8799 45.1702 40.8799 42.5631 40.8799C40.444 40.8799 38.325 40.8799 36.206 41.0418L6.70952 39.7441L1.00476 42.9882V52.7215L6.38333 57.2632C5.56786 60.0215 5.07976 63.1037 5.07976 66.6727C5.07976 78.0275 10.131 88.4108 18.1167 95.3846C21.05 97.9799 24.4738 100.089 28.0571 101.712C32.7833 103.82 38.1619 104.956 43.7024 104.956C65.0512 104.956 80.2083 86.787 80.2083 65.537C80.2083 64.5632 80.2083 63.5906 80.0452 62.7787L50.3845 41.0418ZM99.1119 46.2322C97.156 47.6929 95.2012 49.3156 92.756 50.1251C90.3119 50.7751 87.5417 50.937 85.0964 50.937C82.1631 50.937 79.0667 50.6132 76.2964 49.6394C75.4822 49.3144 74.8298 48.9906 74.0155 48.6656C73.6893 48.5037 73.3631 48.1799 73.0369 48.0168C72.8738 47.8549 72.7107 47.8549 72.7107 47.6929C72.3857 47.531 72.0595 47.206 71.7345 47.0441C65.7036 42.8263 58.044 41.5287 50.7107 41.2037L99.1119 46.2322ZM138.876 95.5465C135.129 97.3322 130.89 98.1418 126.49 98.1418C110.52 98.1418 98.9488 85.0037 97.9714 69.2679V67.3203C97.9714 63.2644 98.7857 60.0203 100.09 57.4251C101.882 54.0179 104.817 51.7465 108.401 50.287C113.454 48.3406 119.973 47.6918 127.306 47.6918C137.41 47.6918 146.046 48.9894 151.262 53.856C154.685 56.9382 156.639 61.4799 156.639 67.9691C156.639 74.9453 154.195 81.4334 150.121 86.6239C147.188 90.5168 143.276 93.437 138.876 95.5465V95.5465Z" stroke="#054747" stroke-width="2"/>
<path fill-rule="evenodd" clip-rule="evenodd" d="M71.8965 46.3953C75.9703 45.0977 80.2084 43.962 84.4441 43.1501C93.8965 41.2037 104.164 40.393 117.691 41.2037" fill="#138F11"/>
<path d="M71.8965 46.3953C75.9703 45.0977 80.2084 43.962 84.4441 43.1501C93.8965 41.2037 104.164 40.393 117.691 41.2037" stroke="#054747" stroke-width="2"/>
<path fill-rule="evenodd" clip-rule="evenodd" d="M19.7465 86.7871C20.0727 86.1383 29.3619 66.024 56.0881 52.7216C57.5548 52.0728 59.0215 51.2621 60.4881 50.6133" fill="#138F11"/>
<path d="M19.7465 86.7871C20.0727 86.1383 29.3619 66.024 56.0881 52.7216C57.5548 52.0728 59.0215 51.2621 60.4881 50.6133" stroke="#054747" stroke-width="2"/>
<path fill-rule="evenodd" clip-rule="evenodd" d="M27.8953 101.874C27.291 103.331 26.6934 104.792 26.1024 106.255C26.1024 106.255 17.9536 104.956 17.9536 95.5476" fill="#138F11"/>
<path d="M27.8953 101.874C27.291 103.331 26.6934 104.792 26.1024 106.255C26.1024 106.255 17.9536 104.956 17.9536 95.5476" stroke="#054747" stroke-width="2"/>
<path d="M69.4524 57.2632C49.3084 66.0098 38.0772 81.0525 30.9917 95.3846" stroke="#054747" stroke-width="2"/>
<path fill-rule="evenodd" clip-rule="evenodd" d="M141.973 101.874C142.585 102.607 143.602 106.255 143.602 106.255C143.602 106.255 152.076 104.631 152.076 95.2227" fill="#138F11"/>
<path d="M141.973 101.874C142.585 102.607 143.602 106.255 143.602 106.255C143.602 106.255 152.076 104.631 152.076 95.2227" stroke="#054747" stroke-width="2"/>
<path fill-rule="evenodd" clip-rule="evenodd" d="M138.55 94.8989C138.713 95.0608 138.713 95.2227 138.876 95.5477L138.55 94.8989Z" fill="#138F11"/>
<path d="M138.55 94.8989C138.713 95.0608 138.713 95.2227 138.876 95.5477" stroke="#054747" stroke-width="2"/>
<path d="M100.416 57.5881C103.675 59.0477 106.61 60.5084 109.379 62.2929C111.335 63.4274 113.291 64.7262 114.92 66.1858C124.373 73.3238 130.891 82.0834 135.454 89.5453C136.204 90.995 137.171 92.344 138.55 94.8989" stroke="#054747" stroke-width="2"/>
<path d="M151.099 54.3442L113.78 52.7216M84.4453 43.1502C74.1786 41.2037 63.7477 40.2311 50.3857 40.8799H50.0584L84.4453 43.1502ZM150.121 86.7871C149.958 86.4633 148.818 83.7049 145.883 79.6502C141.81 73.8097 134.639 65.5371 122.743 58.0752C119.973 56.2894 116.876 54.668 113.617 53.0466C111.964 52.2223 110.278 51.4645 108.564 50.7752L150.121 86.7871ZM18.1167 54.3442H18.2798L56.0893 52.7216L18.1167 54.3442Z" stroke="#054747" stroke-width="2"/>
<path d="M102.861 68.943L109.542 62.293L112.638 59.2096M148.492 68.943C148.492 72.8358 147.513 76.568 145.884 79.812C143.602 84.193 140.017 87.7608 135.617 89.7072C133.147 90.7746 130.486 91.3268 127.795 91.3299L148.492 68.943ZM104.49 77.0549L115.083 66.1858L122.58 58.562L104.49 77.0549Z" stroke="#6AC86A" stroke-width="2"/>
<path fill-rule="evenodd" clip-rule="evenodd" d="M69.6155 57.2631C71.0822 59.8583 71.8965 63.1036 71.8965 67.3214C71.8965 83.8679 60 98.1429 43.3774 98.1429C38.9774 98.1429 34.7393 97.1691 30.9917 95.5476C26.5917 93.6 22.6798 90.5179 19.7465 86.7869C15.6727 81.7583 13.2274 75.2702 13.2274 68.1321C13.2274 61.806 15.0203 57.4262 18.2798 54.3441C23.4941 49.3143 32.2953 47.856 42.5619 47.856C49.5703 47.856 55.7631 48.3417 60.6512 50.1262C64.5631 51.5857 67.6596 53.8571 69.6155 57.2631V57.2631Z" stroke="#054747" stroke-width="2"/>
<path d="M18.1167 68.9431L27.8953 59.2109M19.7465 77.055L38.325 57.749L19.7465 77.055Z" stroke="#6AC86A" stroke-width="2"/>
</svg>
