<svg width="153" height="150" viewBox="0 0 153 150" fill="none" xmlns="http://www.w3.org/2000/svg">
<path fill-rule="evenodd" clip-rule="evenodd" d="M78.0083 147.578C78.4226 147.564 78.837 147.564 79.2375 147.55L78.0083 147.578ZM75.4117 47.1807H32.7337C32.7337 47.1807 33.1895 55.0119 28.1206 64.2242C25.2616 69.4312 21.0905 74.2791 16.8917 79.1684C10.2898 86.8753 3.61876 94.6927 1.94755 104.168C-0.88384 120.189 7.05786 142.605 24.3777 147.287C33.521 149.76 45.2332 147.992 54.6666 147.909C61.4757 147.84 70.7157 147.743 77.8425 147.578" fill="#6AC86A"/>
<path d="M75.4117 47.1807H32.7337C32.7337 47.1807 33.1895 55.0119 28.1206 64.2242C25.2616 69.4312 21.0905 74.2791 16.8917 79.1684C10.2898 86.8753 3.61876 94.6927 1.94755 104.168C-0.88384 120.189 7.05786 142.605 24.3777 147.287C33.521 149.76 45.2332 147.992 54.6666 147.909C61.4757 147.84 70.7157 147.743 77.8425 147.578M78.0083 147.578C78.4226 147.564 78.837 147.564 79.2375 147.55L78.0083 147.578Z" stroke="#054747" stroke-width="2" stroke-linecap="round" stroke-linejoin="round"/>
<path d="M16.6155 78.9335V46.5175C16.6128 44.1071 17.1669 41.7287 18.2347 39.5677C19.3025 37.4067 20.8551 35.5216 22.7713 34.0594C25.4094 32.0415 28.7103 30.8413 32.2917 30.8413H76.6271" stroke="#054747" stroke-width="2" stroke-linecap="round" stroke-linejoin="round"/>
<path fill-rule="evenodd" clip-rule="evenodd" d="M75.4116 47.1807H120.534C120.534 47.1807 120.078 55.0119 125.134 64.2242C128.006 69.4312 132.177 74.2929 136.376 79.1823C142.992 86.8892 149.649 94.6927 151.32 104.168C154.152 120.189 146.196 142.605 128.89 147.287C119.747 149.76 108.035 147.992 98.6014 147.909C91.737 147.84 84.8726 147.743 78.0082 147.578H77.8425C77.4972 147.564 77.1381 147.564 76.7928 147.55" fill="#6AC86A"/>
<path d="M75.4116 47.1807H120.534C120.534 47.1807 120.078 55.0119 125.134 64.2242C128.006 69.4312 132.177 74.2929 136.376 79.1823C142.992 86.8892 149.649 94.6927 151.32 104.168C154.152 120.189 146.196 142.605 128.89 147.287C119.747 149.76 108.035 147.992 98.6014 147.909C91.737 147.84 84.8726 147.743 78.0082 147.578H77.8425C77.4972 147.564 77.1381 147.564 76.7928 147.55" stroke="#054747" stroke-width="2" stroke-linecap="round" stroke-linejoin="round"/>
<path d="M136.653 78.9335V46.5175C136.653 37.8576 129.636 30.8413 120.976 30.8413H76.6272" stroke="#054747" stroke-width="2" stroke-linecap="round" stroke-linejoin="round"/>
<path fill-rule="evenodd" clip-rule="evenodd" d="M75.094 9.66811C75.094 14.2398 71.3787 17.9551 66.807 17.9551C65.5363 17.9551 64.3347 17.6789 63.2712 17.154C61.849 16.4877 60.6465 15.4294 59.8049 14.1033C58.9633 12.7773 58.5176 11.2387 58.52 9.66811C58.52 7.15577 59.6305 4.90862 61.3887 3.39072C62.8939 2.09024 64.8178 1.37666 66.807 1.38112C71.3787 1.38112 75.094 5.08265 75.094 9.66811Z" fill="#6AC86A" stroke="#054747" stroke-width="2" stroke-linecap="round" stroke-linejoin="round"/>
<path d="M55.0671 30.8414L63.2713 17.1541" stroke="#054747" stroke-width="2" stroke-linecap="round" stroke-linejoin="round"/>
<path fill-rule="evenodd" clip-rule="evenodd" d="M75.094 9.66809C75.094 14.2397 78.7955 17.9551 83.381 17.9551C84.6378 17.9551 85.8395 17.6788 86.903 17.154C88.328 16.4901 89.5337 15.4327 90.3779 14.1064C91.2221 12.7802 91.6697 11.2402 91.668 9.66809C91.668 5.08262 87.9526 1.3811 83.381 1.3811C78.7955 1.3811 75.094 5.08262 75.094 9.66809Z" fill="#6AC86A" stroke="#054747" stroke-width="2" stroke-linecap="round" stroke-linejoin="round"/>
<path d="M95.121 30.8414L86.9031 17.1541" stroke="#054747" stroke-width="2" stroke-linecap="round" stroke-linejoin="round"/>
<path fill-rule="evenodd" clip-rule="evenodd" d="M117.21 98.267C117.21 109.255 112.845 119.794 105.076 127.564C97.3065 135.334 86.7688 139.7 75.7806 139.702C64.7923 139.703 54.2534 135.34 46.482 127.572C38.7105 119.803 34.343 109.266 34.3401 98.278C34.3372 87.2893 38.6994 76.7494 46.4673 68.9768C54.2352 61.2043 64.7725 56.8357 75.7612 56.832C86.7492 56.8284 97.2888 61.1894 105.062 68.9558C112.835 76.7223 117.204 87.2582 117.21 98.2463L75.775 98.267H117.21Z" fill="#FEFFFF"/>
<path d="M52.3324 107.287H52.2675C51.9049 107.287 51.5571 107.432 51.3006 107.688C51.0442 107.944 50.9001 108.292 50.9001 108.655C50.9001 109.017 51.0442 109.365 51.3006 109.622C51.5571 109.878 51.9049 110.022 52.2675 110.022H52.331C52.6937 110.022 53.0415 109.878 53.2979 109.622C53.5543 109.365 53.6984 109.017 53.6984 108.655C53.6984 108.292 53.5543 107.944 53.2979 107.688C53.0415 107.432 52.6937 107.287 52.331 107.287H52.3324ZM94.172 104.306C93.195 100.213 90.8834 96.5614 87.6018 93.9275C84.2541 91.2525 80.0974 89.7935 75.8122 89.7895C75.4496 89.7895 75.1018 89.9335 74.8453 90.19C74.5889 90.4464 74.4449 90.7942 74.4449 91.1568C74.4449 91.5195 74.5889 91.8673 74.8453 92.1237C75.1018 92.3801 75.4496 92.5242 75.8122 92.5242C79.4472 92.5111 82.9791 93.7314 85.8307 95.9855C88.6824 98.2396 90.6852 101.394 91.5119 104.934C91.5484 105.113 91.6206 105.284 91.7242 105.435C91.8278 105.586 91.9607 105.715 92.115 105.813C92.2693 105.912 92.4419 105.979 92.6224 106.01C92.803 106.04 92.988 106.035 93.1663 105.992C93.3445 105.95 93.5125 105.873 93.6603 105.764C93.808 105.656 93.9325 105.519 94.0263 105.362C94.1201 105.205 94.1814 105.03 94.2064 104.849C94.2314 104.667 94.2198 104.482 94.172 104.306ZM94.2756 107.688C94.0186 107.432 93.6712 107.289 93.3088 107.287C92.9464 107.289 92.599 107.432 92.342 107.688C92.0865 107.945 91.9425 108.292 91.9415 108.655C91.9415 109.014 92.0892 109.366 92.342 109.622C92.5975 109.874 92.9497 110.022 93.3088 110.022C93.6679 110.022 94.0215 109.874 94.2756 109.622C94.5312 109.365 94.6751 109.017 94.6762 108.655C94.6751 108.292 94.5312 107.945 94.2756 107.688ZM93.5823 91.2618V81.3147C93.5823 71.5153 85.6102 63.5432 75.8122 63.5432C66.0128 63.5432 58.0408 71.5153 58.0408 81.3147V91.2439C54.6977 94.6573 52.4061 98.9596 51.4388 103.638C51.3661 103.994 51.4375 104.363 51.6373 104.666C51.8372 104.969 52.149 105.18 52.5044 105.252C52.8597 105.325 53.2293 105.254 53.532 105.054C53.8347 104.854 54.0455 104.542 54.1183 104.187C56.2149 93.9426 65.3388 86.5078 75.8122 86.5078C88.0217 86.5078 97.9578 96.4426 97.9578 108.653C97.9578 120.866 88.0231 130.799 75.8122 130.799C65.3375 130.799 56.2135 123.364 54.1169 113.119C54.0442 112.763 53.8333 112.452 53.5306 112.252C53.228 112.052 52.8583 111.98 52.503 112.053C52.1477 112.126 51.8358 112.337 51.636 112.639C51.4361 112.942 51.3647 113.312 51.4374 113.667C52.5889 119.231 55.605 124.235 59.9868 127.852C64.4443 131.522 70.0381 133.53 75.8122 133.534C89.5299 133.534 100.691 122.374 100.691 108.653C100.691 101.891 97.9771 95.7506 93.5823 91.2618ZM84.287 85.262C81.5705 84.2755 78.7023 83.772 75.8122 83.7745C72.9216 83.776 70.0534 84.2808 67.336 85.2662V81.3147C67.3382 79.0673 68.2319 76.9126 69.8211 75.3235C71.4102 73.7344 73.5649 72.8406 75.8122 72.8385C78.0593 72.841 80.2137 73.7349 81.8025 75.324C83.3913 76.9131 84.2848 79.0675 84.287 81.3147V85.262ZM90.8476 88.8475C89.6476 87.9332 88.367 87.1298 87.0217 86.4471V81.3147C87.0217 75.1326 81.9929 70.1051 75.8122 70.1051C69.6315 70.1051 64.6027 75.1326 64.6027 81.3147V86.4457C63.2616 87.1211 61.9785 87.9194 60.7755 88.8323V81.3147C60.7755 73.0221 67.5197 66.2765 75.8122 66.2765C84.1033 66.2765 90.849 73.0221 90.849 81.3147L90.8476 88.8475ZM80.5772 99.948C79.9239 99.3079 79.1478 98.8067 78.2957 98.4744C77.4435 98.1421 76.533 97.9856 75.6188 98.0143C72.0637 98.1138 69.1495 100.971 68.9837 104.522C68.9367 105.571 69.1307 106.617 69.5509 107.579C69.9711 108.542 70.6063 109.395 71.4077 110.073V114.891C71.4077 117.32 73.3827 119.297 75.8122 119.297C78.2403 119.297 80.2167 117.32 80.2167 114.891V110.073C80.9796 109.433 81.5927 108.633 82.0127 107.73C82.4327 106.827 82.6495 105.843 82.6476 104.847C82.6504 103.933 82.4685 103.028 82.1127 102.186C81.7569 101.344 81.2346 100.583 80.5772 99.948ZM78.3867 108.039C78.103 108.268 77.8743 108.557 77.7177 108.887C77.5611 109.216 77.4806 109.576 77.482 109.941V114.891C77.482 115.812 76.7334 116.562 75.8108 116.562C74.891 116.562 74.141 115.812 74.141 114.891V109.941C74.1424 109.576 74.062 109.217 73.9057 108.888C73.7493 108.559 73.521 108.269 73.2377 108.04C72.733 107.636 72.3318 107.118 72.0671 106.529C71.8024 105.939 71.682 105.295 71.7157 104.649C71.7691 103.598 72.2237 102.607 72.9858 101.881C73.7479 101.155 74.7595 100.749 75.8122 100.746C76.8868 100.746 77.8978 101.156 78.6712 101.906C79.4723 102.687 79.9129 103.73 79.9129 104.848C79.9129 106.091 79.3563 107.256 78.3867 108.039Z" fill="#054747"/>
</svg>
