<svg width="139" height="158" viewBox="0 0 139 158" fill="none" xmlns="http://www.w3.org/2000/svg">
<g clip-path="url(#clip0)" filter="url(#filter0_d)">
<path d="M67.6557 149.134C67.0576 149.134 66.4605 149.126 65.8605 149.11C65.4781 149.1 65.1153 148.939 64.8519 148.661C64.5884 148.384 64.4459 148.013 64.4557 147.631C64.4769 146.835 65.1663 146.174 65.9355 146.227C75.0923 146.454 84.0673 144.798 92.6134 141.268C92.967 141.122 93.3641 141.123 93.7173 141.27C94.0706 141.416 94.3511 141.697 94.4971 142.051C94.6431 142.405 94.6426 142.802 94.4958 143.155C94.3491 143.508 94.068 143.789 93.7144 143.935C85.3528 147.387 76.5951 149.133 67.6567 149.133L67.6557 149.134ZM38.1432 141.631C37.9057 141.631 37.6653 141.572 37.4432 141.448C31.9173 138.375 27.2355 134.905 23.1307 130.837C11.1086 118.92 4.55861 103.086 4.68842 86.2472C4.69515 85.45 5.37976 84.7741 6.14226 84.8164C6.52471 84.8197 6.89021 84.9747 7.15848 85.2473C7.42675 85.5199 7.57585 85.8878 7.57303 86.2702C7.44996 102.324 13.6961 117.424 25.1615 128.788C29.0769 132.668 33.5519 135.986 38.8451 138.929C39.124 139.084 39.3433 139.328 39.4688 139.622C39.5943 139.915 39.6188 140.242 39.5385 140.551C39.4583 140.86 39.2777 141.134 39.0252 141.329C38.7727 141.525 38.4625 141.631 38.1432 141.631ZM68.4259 136.125C57.0317 136.125 45.9932 132.355 37.1317 125.397C36.8308 125.161 36.636 124.815 36.5903 124.435C36.5446 124.055 36.6517 123.673 36.8879 123.372C37.1242 123.071 37.4703 122.876 37.8502 122.83C38.23 122.785 38.6125 122.892 38.9134 123.128C47.7923 130.099 59 133.686 70.4634 133.197C71.2423 133.146 71.9317 133.782 71.9644 134.578C71.9971 135.374 71.3798 136.045 70.5836 136.078C69.8644 136.109 69.1442 136.124 68.4269 136.124L68.4259 136.125ZM29.1375 116.657C28.7 116.657 28.2663 116.458 27.9836 116.08C12.9086 95.9904 15.324 67.2722 33.6028 49.2779C33.8776 49.0215 34.2416 48.8824 34.6174 48.8904C34.9932 48.8983 35.351 49.0526 35.6147 49.3205C35.8784 49.5883 36.0271 49.9485 36.0292 50.3243C36.0313 50.7002 35.8866 51.062 35.6259 51.3327C18.3721 68.3174 16.0769 95.4087 30.2884 114.346C30.4491 114.56 30.547 114.815 30.5711 115.082C30.5951 115.349 30.5444 115.617 30.4246 115.857C30.3048 116.096 30.1207 116.298 29.8928 116.438C29.665 116.579 29.4024 116.654 29.1346 116.654L29.1375 116.657ZM129.926 103.626C129.7 103.626 129.476 103.573 129.274 103.471C129.072 103.369 128.897 103.221 128.763 103.039C128.629 102.856 128.54 102.645 128.502 102.422C128.465 102.199 128.481 101.97 128.548 101.754C135.298 80.0972 129.607 56.8462 113.693 41.0741C111.962 39.3577 110.456 38.0135 108.953 36.8433C108.801 36.7279 108.673 36.5835 108.577 36.4182C108.481 36.253 108.418 36.0704 108.394 35.8809C108.369 35.6915 108.382 35.499 108.432 35.3146C108.482 35.1302 108.569 34.9577 108.686 34.807C108.804 34.6563 108.95 34.5304 109.116 34.4367C109.283 34.343 109.466 34.2833 109.656 34.2611C109.846 34.2389 110.038 34.2546 110.222 34.3073C110.405 34.3601 110.577 34.4488 110.726 34.5683C112.319 35.8087 113.908 37.226 115.724 39.025C132.405 55.5587 138.374 79.9231 131.301 102.612C131.209 102.905 131.026 103.161 130.778 103.344C130.531 103.526 130.231 103.624 129.924 103.624L129.926 103.626ZM109.233 55.126C108.796 55.126 108.364 54.9289 108.081 54.5539C107.154 53.3289 105.929 51.9597 104.442 50.4856C90.3903 36.5577 68.5855 32.8414 50.1855 41.2424C49.8374 41.4014 49.4404 41.4156 49.0819 41.2819C48.7233 41.1481 48.4325 40.8775 48.2735 40.5294C48.1145 40.1813 48.1003 39.7843 48.234 39.4257C48.3677 39.0671 48.6384 38.7764 48.9865 38.6174C68.4711 29.7231 91.573 33.6683 106.473 48.4366C108.057 50.0068 109.372 51.4789 110.381 52.8135C110.542 53.0275 110.641 53.2823 110.666 53.5494C110.691 53.8164 110.641 54.0851 110.521 54.3252C110.402 54.5653 110.218 54.7673 109.99 54.9086C109.762 55.0499 109.499 55.1249 109.231 55.125L109.233 55.126ZM16.0115 55.0241C18.8238 50.2853 22.2252 45.9221 26.1346 42.0385C43.9644 24.3674 70.3076 18.7626 93.2451 27.7597C93.6015 27.8984 93.9982 27.8903 94.3486 27.7371C94.699 27.584 94.9743 27.2982 95.1144 26.9424C95.2534 26.5861 95.2454 26.1892 95.0922 25.8387C94.939 25.4883 94.653 25.213 94.2971 25.0731C70.2971 15.6597 42.7442 21.5154 24.1028 39.9895C20.0213 44.0444 16.4696 48.5999 13.5326 53.5472C13.3486 53.8752 13.3 54.2621 13.3971 54.6255C13.4943 54.9888 13.7296 55.2999 14.0528 55.4922C14.376 55.6846 14.7615 55.7431 15.1272 55.6553C15.493 55.5675 15.8099 55.3403 16.0105 55.0222L16.0115 55.0241Z" fill="white"/>
<path d="M70.7665 40.6549C81.7914 40.6549 90.729 31.7961 90.729 20.8683C90.729 9.94052 81.7914 1.08179 70.7665 1.08179C59.7415 1.08179 50.804 9.94052 50.804 20.8683C50.804 31.7961 59.7415 40.6549 70.7665 40.6549Z" fill="#6AC86A"/>
<path d="M97.3028 109.907C104.241 103.512 108.501 94.7048 108.501 85.0528C108.501 77.6942 106.066 70.8173 101.807 65.1461C102.415 64.6634 102.902 64.0605 103.388 63.4576C105.945 59.5971 101.562 49.825 101.562 49.825C101.562 49.825 91.8249 50.3076 89.2691 54.1682C89.2691 54.2894 89.147 54.2894 89.147 54.4096C83.548 51.5153 77.2182 49.825 70.4018 49.825C63.7066 49.825 57.498 51.3932 52.021 54.1682C49.4653 50.3076 39.7268 49.825 39.7268 49.825C39.7268 49.825 35.223 59.5971 37.9008 63.4576C38.2662 63.9403 38.6316 64.423 39.1181 64.9057C34.7364 70.5769 32.1797 77.574 32.1797 85.0538C32.1797 95.5509 37.1701 104.961 44.9614 111.356L43.8653 116.303C43.3787 118.595 44.8393 121.009 47.1518 121.491L49.7085 122.095C52.021 122.578 54.4557 121.13 54.9422 118.837L55.3076 117.39C59.9326 119.2 65.0451 120.286 70.4018 120.286C76.6095 120.286 82.4518 118.959 87.6864 116.425L88.6595 119.321C89.5114 121.613 91.946 122.82 94.2585 121.975L96.6932 121.131C99.0057 120.286 100.222 117.873 99.371 115.581L97.3018 109.911L97.3028 109.907Z" fill="#6AC86A"/>
<path d="M98.6413 62.2471C98.4508 62.247 98.2646 62.1904 98.1063 62.0844C97.9481 61.9784 97.8249 61.8277 97.7524 61.6516C97.6798 61.4754 97.6613 61.2817 97.699 61.095C97.7368 60.9083 97.8291 60.737 97.9644 60.6028C98.1096 60.4586 98.2894 60.3144 98.4701 60.1701C98.5749 60.0865 98.6807 60.0048 98.7711 59.9221C99.3336 59.0894 98.5019 56.4634 97.6663 54.8509C97.5489 54.6245 97.5262 54.3606 97.6033 54.1175C97.6804 53.8743 97.8509 53.6717 98.0773 53.5543C98.3038 53.4368 98.5676 53.4142 98.8108 53.4913C99.054 53.5683 99.2566 53.7389 99.374 53.9653C99.8086 54.8019 101.89 59.0865 100.249 61.1576L100.172 61.2432C100.028 61.3865 99.8471 61.5317 99.6663 61.6749C99.5432 61.7711 99.4182 61.8673 99.3201 61.9663C99.1402 62.1449 98.8967 62.2448 98.6432 62.2442L98.6413 62.2471ZM93.6855 106.882C97.8416 103.141 100.852 98.298 102.366 92.9153C102.436 92.6699 102.404 92.407 102.28 92.1845C102.155 91.9619 101.947 91.798 101.702 91.7288C101.456 91.6596 101.194 91.6907 100.971 91.8153C100.748 91.9399 100.585 92.1478 100.515 92.3932C99.0986 97.4257 96.284 101.953 92.398 105.451C92.2526 105.581 92.1502 105.752 92.1043 105.941C92.0585 106.131 92.0714 106.33 92.1413 106.512C92.2112 106.694 92.3348 106.85 92.4958 106.96C92.6567 107.07 92.8473 107.129 93.0422 107.128C93.2798 107.128 93.509 107.04 93.6855 106.881V106.882Z" fill="white"/>
<path d="M70.7663 35.8289C79.1027 35.8289 85.8606 29.1308 85.8606 20.8683C85.8606 12.6058 79.1027 5.90771 70.7663 5.90771C62.43 5.90771 55.6721 12.6058 55.6721 20.8683C55.6721 29.1308 62.43 35.8289 70.7663 35.8289Z" fill="white"/>
<path d="M70.2799 102.186C76.5319 102.186 81.6001 98.3504 81.6001 93.6193C81.6001 88.8883 76.5319 85.053 70.2799 85.053C64.0279 85.053 58.9597 88.8883 58.9597 93.6193C58.9597 98.3504 64.0279 102.186 70.2799 102.186Z" fill="white"/>
<path d="M98.423 110.174C105.548 103.386 109.462 94.4913 109.462 85.0528C109.462 77.9374 107.262 71.1172 103.091 65.274C103.478 64.8759 103.827 64.4422 104.19 63.9874C106.96 59.8067 102.911 50.4797 102.44 49.4297L102.171 48.8307L101.515 48.8634C101.113 48.8826 92.0019 49.3778 88.8192 53.1663C83.0192 50.3105 76.8278 48.8624 70.4009 48.8624C64.0067 48.8624 57.9182 50.2403 52.2884 52.9615C48.9557 49.3605 40.1673 48.8826 39.773 48.8634L39.124 48.8317L38.8519 49.4211C38.3673 50.473 34.2019 59.8134 37.1307 64.0365C37.3605 64.3403 37.5951 64.6518 37.8644 64.9663C33.5115 70.872 31.2153 77.799 31.2153 85.0528C31.2153 95.2009 35.8278 104.885 43.8923 111.718L42.9211 116.103C42.6322 117.509 42.9111 118.973 43.6971 120.174C44.4653 121.353 45.6201 122.155 46.9278 122.427L49.5076 123.035C52.3749 123.636 55.2913 121.802 55.8701 119.071L55.9721 118.668C60.6788 120.38 65.5259 121.246 70.3971 121.246C76.3384 121.246 81.9557 120.071 87.1134 117.751L87.7538 119.656C88.5749 121.862 90.5865 123.21 92.7471 123.209C93.3509 123.209 93.9663 123.105 94.5701 122.883L97.0192 122.034C98.4221 121.522 99.5259 120.521 100.129 119.216C100.706 117.966 100.756 116.558 100.27 115.252L98.4192 110.179L98.423 110.174ZM98.3875 118.407C98.0028 119.243 97.2836 119.887 96.3798 120.218L93.9307 121.067C92.1586 121.714 90.2384 120.798 89.5721 119.011L88.2509 115.08L87.2701 115.556C82.1076 118.054 76.4336 119.321 70.4048 119.321C65.4201 119.321 60.4605 118.369 55.6605 116.49L54.6451 116.093L54.0057 118.635C53.6336 120.385 51.7596 121.542 49.9326 121.156L47.3519 120.548C46.5249 120.375 45.8019 119.869 45.3153 119.122C44.8081 118.351 44.6257 117.411 44.8076 116.507L46.0307 110.985L45.5749 110.61C37.6759 104.125 33.1451 94.8105 33.1451 85.0518C33.1451 77.9595 35.4749 71.1951 39.8826 65.4913L40.4019 64.8182L39.799 64.2201C39.3596 63.7836 39.0249 63.3422 38.6951 62.9067C36.8923 60.3076 39.0701 53.7961 40.3384 50.8259C43.2971 51.0653 49.4913 52.0797 51.223 54.6961L51.6951 55.4095L52.4596 55.023C58.0124 52.2095 64.0499 50.7826 70.4057 50.7826C76.8067 50.7826 82.9644 52.2893 88.7096 55.2605L90.1124 55.9865V54.6711C90.1278 54.6413 90.1413 54.6124 90.1538 54.5817C91.9865 52.0518 98.0346 51.0643 100.952 50.8268C102.192 53.8047 104.322 60.3115 102.644 62.8509C102.178 63.4278 101.737 63.974 101.211 64.3893L100.479 64.972L101.041 65.7211C105.294 71.3826 107.543 78.0672 107.543 85.0499C107.543 94.1499 103.676 102.725 96.6538 109.196L96.1826 109.631L98.474 115.91C98.626 116.31 98.6969 116.737 98.6825 117.165C98.6682 117.593 98.5688 118.014 98.3903 118.403L98.3875 118.407ZM79.3201 107.84C79.3696 107.957 79.3957 108.081 79.3969 108.208C79.3981 108.334 79.3744 108.459 79.3272 108.576C79.28 108.694 79.2101 108.8 79.1216 108.89C79.0331 108.981 78.9277 109.052 78.8115 109.102C76.0557 110.274 73.2259 110.868 70.4019 110.868C67.7192 110.868 65.3355 110.452 63.1173 109.597C62.8796 109.505 62.688 109.323 62.5847 109.09C62.4814 108.857 62.4748 108.593 62.5663 108.355C62.7586 107.859 63.3019 107.651 63.8096 107.803C70.9499 109.946 77.0673 107.755 78.0596 107.333C78.1757 107.283 78.3005 107.257 78.4268 107.256C78.5531 107.254 78.6783 107.278 78.7955 107.325C78.9126 107.372 79.0193 107.442 79.1095 107.53C79.1997 107.619 79.2716 107.724 79.3211 107.84H79.3201ZM70.2807 84.0913C63.5086 84.0913 57.999 88.3653 57.999 93.6201C57.999 98.8749 63.5086 103.147 70.2807 103.147C77.0528 103.147 82.5625 98.873 82.5625 93.6191C82.5625 88.3653 77.0528 84.0913 70.2807 84.0913ZM70.2807 101.224C64.5692 101.224 59.9221 97.8134 59.9221 93.6191C59.9221 89.4249 64.5692 86.0144 70.2807 86.0144C75.9923 86.0144 80.6394 89.4259 80.6394 93.6201C80.6394 97.8143 75.9923 101.226 70.2807 101.226V101.224ZM66.8711 93.498C66.8711 94.7643 65.8355 95.7903 64.5586 95.7903C63.2817 95.7903 62.2461 94.7643 62.2461 93.498C62.2461 92.2317 63.2817 91.2057 64.5586 91.2057C65.8355 91.2057 66.8711 92.2317 66.8711 93.498ZM78.3134 93.498C78.3134 94.7643 77.2778 95.7903 76.0009 95.7903C74.724 95.7903 73.6884 94.7643 73.6884 93.498C73.6884 92.2317 74.724 91.2057 76.0009 91.2057C77.2778 91.2057 78.3134 92.2317 78.3134 93.498ZM95.4644 71.1788C95.4644 71.4338 95.3631 71.6784 95.1827 71.8587C95.0024 72.039 94.7579 72.1403 94.5028 72.1403C94.2478 72.1403 94.0032 72.039 93.8229 71.8587C93.6426 71.6784 93.5413 71.4338 93.5413 71.1788C93.5413 69.7499 91.2365 68.1595 87.9298 68.1595C84.623 68.1595 82.3182 69.7509 82.3182 71.1788C82.3182 71.4338 82.2169 71.6784 82.0366 71.8587C81.8563 72.039 81.6117 72.1403 81.3567 72.1403C81.1017 72.1403 80.8571 72.039 80.6768 71.8587C80.4964 71.6784 80.3951 71.4338 80.3951 71.1788C80.3951 68.4067 83.7048 66.2355 87.9298 66.2355C92.1548 66.2355 95.4644 68.4067 95.4644 71.1778V71.1788ZM58.3634 71.1788C58.3634 69.7499 56.0586 68.1595 52.7519 68.1595C49.4451 68.1595 47.1403 69.7509 47.1403 71.1788C47.1403 71.4338 47.039 71.6784 46.8587 71.8587C46.6784 72.039 46.4338 72.1403 46.1788 72.1403C45.9238 72.1403 45.6792 72.039 45.4989 71.8587C45.3186 71.6784 45.2173 71.4338 45.2173 71.1788C45.2173 68.4067 48.5269 66.2355 52.7519 66.2355C56.9769 66.2355 60.2865 68.4067 60.2865 71.1778C60.2865 71.4328 60.1852 71.6774 60.0049 71.8577C59.8245 72.038 59.58 72.1394 59.3249 72.1394C59.0699 72.1394 58.8254 72.038 58.645 71.8577C58.4647 71.6774 58.3634 71.4328 58.3634 71.1778V71.1788ZM70.7663 41.6163C82.3038 41.6163 91.6903 32.3086 91.6903 20.8682C91.6903 9.42781 82.3038 0.120117 70.7663 0.120117C59.2288 0.120117 49.8423 9.42781 49.8423 20.8682C49.8423 32.3086 59.2288 41.6163 70.7663 41.6163ZM70.7663 2.04319C81.2432 2.04319 89.7673 10.4874 89.7673 20.8682C89.7673 31.248 81.2442 39.6922 70.7663 39.6922C60.2884 39.6922 51.7653 31.248 51.7653 20.8682C51.7653 10.4874 60.2884 2.04319 70.7663 2.04319ZM70.7663 36.7903C79.6192 36.7903 86.8221 29.648 86.8221 20.8672C86.8221 12.0865 79.6192 4.94704 70.7663 4.94704C61.9134 4.94704 54.7105 12.0893 54.7105 20.8692C54.7105 29.649 61.9124 36.7922 70.7663 36.7922V36.7903ZM70.7663 6.86916C78.5586 6.86916 84.899 13.148 84.899 20.8682C84.899 28.5884 78.5576 34.8672 70.7663 34.8672C62.9749 34.8672 56.6336 28.5874 56.6336 20.8682C56.6336 13.149 62.974 6.86916 70.7663 6.86916ZM67.1153 29.9172H69.5499V27.5038H73.2009V25.0903H69.5499V23.8845H73.5663C74.2971 23.8845 75.0278 23.523 75.6355 23.1605C76.2442 22.9201 76.7317 22.3163 77.2182 21.7134C77.7048 21.1095 78.0701 20.5067 78.3144 19.9038C78.5576 19.1797 78.6798 18.5768 78.6798 17.8518C78.6798 17.249 78.5576 16.5249 78.3144 15.922C78.0701 15.198 77.7048 14.7153 77.2182 14.2326C76.7317 13.7499 76.123 13.5095 75.5144 13.147C74.7846 12.9067 74.0538 13.0268 73.324 13.0268H67.1153V21.473H63.4634V23.8865H67.1153V25.0922H63.4634V27.5057H67.1153V29.9192V29.9172ZM69.5499 15.4393H73.323C73.5673 15.4393 74.0538 15.198 74.2971 15.3182C74.5403 15.4384 74.9057 15.3182 75.149 15.5586C75.3923 15.799 75.6365 16.1624 75.7576 16.524C75.8798 16.8855 76.0019 17.3682 76.0019 17.8509C76.0019 18.3336 75.8807 18.8153 75.7586 19.1778C75.6374 19.5393 75.5153 20.022 75.2721 20.2634C75.0288 20.5047 74.7855 20.8663 74.4201 20.9874C74.0557 21.2278 73.6903 21.4682 73.3249 21.4682H69.5509V15.4374L69.5499 15.4393Z" fill="#054747"/>
</g>
<defs>
<filter id="filter0_d" x="0" y="0" width="138.769" height="158" filterUnits="userSpaceOnUse" color-interpolation-filters="sRGB">
<feFlood flood-opacity="0" result="BackgroundImageFix"/>
<feColorMatrix in="SourceAlpha" type="matrix" values="0 0 0 0 0 0 0 0 0 0 0 0 0 0 0 0 0 0 127 0"/>
<feOffset dy="4"/>
<feGaussianBlur stdDeviation="2"/>
<feColorMatrix type="matrix" values="0 0 0 0 0 0 0 0 0 0 0 0 0 0 0 0 0 0 0.25 0"/>
<feBlend mode="normal" in2="BackgroundImageFix" result="effect1_dropShadow"/>
<feBlend mode="normal" in="SourceGraphic" in2="effect1_dropShadow" result="shape"/>
</filter>
<clipPath id="clip0">
<rect width="130.769" height="150" fill="white" transform="translate(4)"/>
</clipPath>
</defs>
</svg>
