<svg width="18" height="26" viewBox="0 0 18 26" fill="none" xmlns="http://www.w3.org/2000/svg">
<path d="M0.564515 13.7616H4.40107V25.4217C4.40107 25.6519 4.65375 25.8384 4.96559 25.8384H11.4706C11.7824 25.8384 12.0351 25.6519 12.0351 25.4217V13.8165H16.4456C16.7323 13.8165 16.9736 13.6576 17.0064 13.4473L17.6762 9.15464C17.6946 9.03654 17.6439 8.91826 17.5369 8.82966C17.4297 8.74098 17.2764 8.69022 17.1155 8.69022H12.0354V5.99935C12.0354 5.18819 12.627 4.77686 13.7939 4.77686C13.9602 4.77686 17.1155 4.77686 17.1155 4.77686C17.4274 4.77686 17.6801 4.59024 17.6801 4.36011V0.419833C17.6801 0.189621 17.4274 0.00308394 17.1155 0.00308394H12.5379C12.5056 0.00191705 12.4339 0 12.3282 0C11.5339 0 8.77313 0.115106 6.5923 1.59623C4.17594 3.23756 4.51183 5.20278 4.59211 5.54351V8.69014H0.564515C0.252677 8.69014 0 8.87667 0 9.10688V13.3447C0 13.5749 0.252677 13.7616 0.564515 13.7616Z" fill="white"/>
</svg>
