<svg width="45" height="26" viewBox="0 0 45 26" fill="none" xmlns="http://www.w3.org/2000/svg">
<path fill-rule="evenodd" clip-rule="evenodd" d="M38.0204 16.4293C39.4858 17.9079 41.0325 19.2992 42.3468 20.927C42.9274 21.6504 43.477 22.3968 43.8975 23.2363C44.4933 24.4297 43.9537 25.7429 42.9184 25.8141L36.4826 25.8111C34.8227 25.9535 33.4985 25.2628 32.3851 24.0899C31.494 23.1518 30.6689 22.1535 29.8121 21.1838C29.4608 20.7875 29.0932 20.4145 28.654 20.1198C27.7754 19.5304 27.0128 19.7108 26.5107 20.6579C25.9994 21.6211 25.8834 22.6877 25.8332 23.7612C25.7642 25.3275 25.3061 25.7393 23.7839 25.811C20.5305 25.9696 17.443 25.4609 14.5747 23.7647C12.046 22.2693 10.0851 20.1583 8.3783 17.7684C5.05518 13.1148 2.51032 8.00131 0.223108 2.74451C-0.291727 1.56015 0.0847831 0.924388 1.34915 0.901886C3.4487 0.859732 5.54795 0.862732 7.64996 0.898886C8.50328 0.911787 9.06819 1.41763 9.39767 2.25081C10.5336 5.13754 11.9235 7.884 13.6682 10.4297C14.1328 11.1075 14.6065 11.7853 15.2812 12.2623C16.0275 12.7905 16.5958 12.6154 16.9469 11.7562C17.1697 11.2113 17.2672 10.6245 17.3174 10.0409C17.4838 8.03326 17.5057 6.02907 17.2139 4.02848C17.0348 2.77991 16.3544 1.97164 15.1489 1.73536C14.5338 1.6149 14.6254 1.37833 14.9232 1.01545C15.4405 0.389588 15.9271 0 16.8969 0H24.1704C25.3154 0.233572 25.5697 0.765223 25.7265 1.95604L25.7327 10.3063C25.7203 10.7673 25.9555 12.1352 26.7589 12.4404C27.4019 12.6576 27.8257 12.1259 28.2115 11.7046C29.953 9.79428 31.1959 7.53671 32.3063 5.19904C32.799 4.17114 33.2227 3.10364 33.6333 2.03704C33.9376 1.24557 34.415 0.856131 35.2776 0.873383L42.2778 0.879833C42.4854 0.879833 42.6954 0.882984 42.8964 0.918537C44.076 1.12631 44.3993 1.65076 44.035 2.84127C43.4609 4.7091 42.344 6.26564 41.2519 7.82939C40.0845 9.4989 38.836 11.1113 37.6783 12.7907C36.6147 14.3243 36.6991 15.0973 38.0204 16.4293Z" fill="white"/>
</svg>
